HIERARCHY
ROOT Hips
{
  OFFSET 90.7885 88.945 -76.2838
  CHANNELS 6 Xposition Yposition Zposition Zrotation Xrotation Yrotation
  JOINT LeftUpLeg
  {
    OFFSET 8.64259 1.95398 -2.38835
    CHANNELS 3 Zrotation Xrotation Yrotation
    JOINT LeftLeg
    {
      OFFSET 43.7702 0 0
      CHANNELS 3 Zrotation Xrotation Yrotation
      JOINT LeftFoot
      {
        OFFSET 40.6238 0 0
        CHANNELS 3 Zrotation Xrotation Yrotation
        JOINT LeftToeBase
        {
          OFFSET 12.7242 0 0
          CHANNELS 3 Zrotation Xrotation Yrotation
          End Site
          {
            OFFSET 0 0 0
          }
        }
      }
    }
  }
  JOINT RightUpLeg
  {
    OFFSET -8.2249 1.95398 -2.59336
    CHANNELS 3 Zrotation Xrotation Yrotation
    JOINT RightLeg
    {
      OFFSET 43.5653 0 0
      CHANNELS 3 Zrotation Xrotation Yrotation
      JOINT RightFoot
      {
        OFFSET 40.6238 0 0
        CHANNELS 3 Zrotation Xrotation Yrotation
        JOINT RightToeBase
        {
          OFFSET 12.7242 0 0
          CHANNELS 3 Zrotation Xrotation Yrotation
          End Site
          {
            OFFSET 0 0 0
          }
        }
      }
    }
  }
  JOINT Spine
  {
    OFFSET 0.165834 0.87714 6.61349
    CHANNELS 3 Zrotation Xrotation Yrotation
    JOINT Spine1
    {
      OFFSET 7.38963 1.71661e-005 0
      CHANNELS 3 Zrotation Xrotation Yrotation
      JOINT Spine2
      {
        OFFSET 11.9445 1.14441e-005 0
        CHANNELS 3 Zrotation Xrotation Yrotation
        JOINT Spine3
        {
          OFFSET 14.7254 4.19617e-005 0
          CHANNELS 3 Zrotation Xrotation Yrotation
          JOINT Spine4
          {
            OFFSET 10.9679 0 0
            CHANNELS 3 Zrotation Xrotation Yrotation
            JOINT RightShoulder
            {
              OFFSET 2.46616 -1.6653 3.69651
              CHANNELS 3 Zrotation Xrotation Yrotation
              JOINT RightArm
              {
                OFFSET 13.0012 0 0
                CHANNELS 3 Zrotation Xrotation Yrotation
                JOINT RightForeArm
                {
                  OFFSET 28.7848 1.52588e-005 0
                  CHANNELS 3 Zrotation Xrotation Yrotation
                  JOINT RightHand
                  {
                    OFFSET 26.5688 1.52588e-005 0
                    CHANNELS 3 Zrotation Xrotation Yrotation
                    End Site
                    {
                      OFFSET 0 0 0
                    }
                  }
                }
              }
            }
            JOINT LeftShoulder
            {
              OFFSET 2.38034 -1.29275 -3.7523
              CHANNELS 3 Zrotation Xrotation Yrotation
              JOINT LeftArm
              {
                OFFSET 16.3182 6.10352e-005 0
                CHANNELS 3 Zrotation Xrotation Yrotation
                JOINT LeftForeArm
                {
                  OFFSET 27.0901 0 0
                  CHANNELS 3 Zrotation Xrotation Yrotation
                  JOINT LeftHand
                  {
                    OFFSET 24.5451 1.52588e-005 0
                    CHANNELS 3 Zrotation Xrotation Yrotation
                    End Site
                    {
                      OFFSET 0 0 0
                    }
                  }
                }
              }
            }
            JOINT Neck
            {
              OFFSET 5.0226 -0.0266342 0
              CHANNELS 3 Zrotation Xrotation Yrotation
              JOINT Head
              {
                OFFSET 6.69363 2.86102e-005 0
                CHANNELS 3 Zrotation Xrotation Yrotation
                End Site
                {
                  OFFSET 0 0 0
                }
              }
            }
          }
        }
      }
    }
  }
}
MOTION
Frames:	18
Frame Time:	0.0416667
15.5178 90.0636 -270.231 79.0922 -40.3466 84.533 -162.939 -0.631868 119.657 -10.9962 68.1276 4.9211 81.5577 1.24958 -3.34493 37.5665 5.92459 -11.9685 148.882 15.272 96.3567 -80.0126 9.02814 12.0549 97.3442 -13.0413 -1.89835 11.4684 -1.713 5.84467 -5.832 8.56052 -91.9314 9.62033 -12.4979 -2.86499 -1.99144 -12.6117 -2.30372 -24.9043 -11.054 -6.52806 -4.89172 -11.054 -6.52807 95.4955 -16.1748 -99.581 56.644 -10.6474 43.6432 -27.4765 -26.9984 -53.7935 -20.8995 0.063795 -19.327 -85.391 -28.382 81.8086 1.71924 5.61232 -51.7683 40.8577 -10.3188 -89.356 10.25 0.16407 -2.06821 43.787 1.60844 -8.71825 -21.5793 6.07128 0.770968 
15.9446 92.4705 -264.906 74.3363 -46.4097 81.6034 -159.913 -0.722003 119.123 -12.2038 70.4135 4.77228 66.1818 -1.56118 6.43437 56.1473 3.85756 -17.7142 151.132 29.3701 94.4836 -74.5664 6.23879 9.76806 97.3804 -12.9412 -0.16406 11.4347 -1.0317 4.74094 -5.77551 8.29391 -92.1781 10.1326 -12.5002 -3.27635 -1.47999 -12.632 -2.71475 -24.3775 -10.9333 -6.91833 -4.36488 -10.9333 -6.91833 94.7699 -14.5597 -102.116 57.304 -12.6434 48.7703 -25.4607 -24.3588 -53.2504 -22.869 0.713874 -20.8606 -83.9661 -23.1938 83.5668 0.0200054 1.71525 -49.7113 39.1425 -11.3269 -92.1989 9.11248 -0.0676723 -4.11756 44.9693 5.21545 -7.77413 -23.8812 8.91984 1.28269 
16.1284 94.0621 -258.599 68.3007 -56.0189 76.6442 -158.268 -4.9 117.935 -10.6507 61.5819 2.47108 51.7041 -5.68282 6.27548 48.2423 5.20213 -16.3015 157.279 39.1404 94.0087 -62.9043 1.23038 8.01136 89.9213 -11.1149 -0.916582 14.1475 -1.55925 5.36503 -5.26807 8.13003 -92.416 10.4406 -11.6004 -3.77997 -1.18187 -11.7553 -3.25951 -24.0004 -9.92608 -7.11616 -3.98771 -9.92608 -7.11616 93.5239 -12.3798 -106.503 56.1134 -12.5272 51.5775 -24.3602 -23.6704 -53.7407 -19.4777 0.553158 -22.3111 -83.8072 -22.5975 83.7741 0.176607 0.250797 -45.3641 38.419 -12.4355 -94.499 7.94878 -0.0465579 -3.89895 46.2579 9.72157 -4.34381 -26.1272 11.5586 0.0134263 
16.2365 94.2091 -251.501 54.4602 -67.0307 64.2729 -161.015 -14.0166 113.787 -9.28226 41.9381 3.03909 47.5265 -5.06021 2.09886 19.3861 4.22106 -3.90926 163.792 44.8384 96.3069 -48.228 -6.03789 6.45092 84.5411 -10.4586 -0.886445 14.3478 -1.35991 5.00348 -4.21698 8.01862 -92.5645 10.6615 -9.57746 -4.22893 -0.979451 -9.75408 -3.80029 -23.6663 -7.86477 -6.92033 -3.65365 -7.86476 -6.92034 92.4246 -13.3726 -108.919 52.5244 -13.9141 51.3283 -22.4326 -22.0728 -52.6521 -16.6414 0.606313 -24.8769 -84.4299 -23.9086 82.7426 1.99306 1.59509 -42.9845 37.389 -13.2811 -94.8979 6.67951 -0.0437691 -3.76115 46.0679 12.1626 -3.41692 -26.2628 13.2577 0.319403 
16.4132 92.8273 -244.375 24.6453 -76.5722 33.8611 -169.162 -16.2888 102.452 -26.7238 25.7527 3.64651 51.592 -2.35553 4.41291 25.3702 3.42464 -4.11754 168.822 47.3039 98.9973 -39.0247 -13.4765 4.85562 81.1981 -9.97059 -0.922173 14.9398 -1.09396 4.48102 -3.02805 8.09247 -92.3561 10.5564 -7.11292 -4.04606 -1.10032 -7.28395 -3.72816 -23.6901 -5.5698 -5.99759 -3.67746 -5.56978 -5.99758 91.5138 -16.9973 -109.257 45.595 -14.7115 46.0237 -20.8162 -24.5037 -50.9546 -17.4196 0.653532 -24.8071 -85.2182 -28.5017 82.1794 5.5505 5.07807 -42.0741 39.2698 -14.616 -94.6009 6.79163 0.00973108 -3.11892 46.9878 13.2305 -3.7441 -26.5631 14.269 1.14708 
16.6269 90.6094 -237.11 -23.8824 -79.4351 -17.1334 -171.834 -12.3357 92.6121 -46.7195 19.7909 0.960811 53.7291 -2.13526 4.28093 29.6907 5.42997 -8.19339 171.769 47.1637 100.311 -39.2878 -13.4428 3.37163 78.2525 -8.72779 -0.484158 19.0211 -0.101929 2.09912 -1.9788 8.21545 -91.7675 10.3728 -4.7511 -3.09693 -1.29264 -4.88273 -2.88462 -23.8427 -3.60149 -4.38136 -3.83007 -3.60149 -4.38138 90.7153 -21.8061 -108.718 38.6517 -11.0781 38.711 -23.7718 -30.7663 -50.6478 -21.168 0.411485 -22.0471 -87.0066 -33.2096 79.8706 7.70243 10.2473 -40.8806 41.3727 -14.2167 -91.5716 7.93268 -0.0482579 -3.90347 45.7262 12.7568 -3.83217 -25.003 13.8766 1.08322 
16.506 88.9061 -229.191 -53.3151 -78.0159 -47.1796 -168.083 -5.45759 93.6256 -64.8239 16.8585 -1.06455 53.3025 -2.50586 4.201 32.8392 4.8706 -8.43045 173.138 46.2716 101.221 -46.4266 -14.8878 2.50156 70.8444 -5.40566 -2.80602 15.6638 0.357657 1.59021 -1.14224 8.2627 -91.3565 10.3097 -2.8959 -2.44471 -1.36015 -3.00066 -2.31489 -23.891 -2.02771 -3.20166 -3.87839 -2.0277 -3.20165 90.4211 -26.1304 -107.476 34.1914 -3.74927 31.6101 -27.8783 -34.4379 -52.699 -22.7869 -0.190414 -18.483 -88.3797 -36.4768 78.2383 7.42368 17.2726 -40.6589 45.003 -11.2197 -86.0032 7.20316 -0.21752 -5.93513 40.0343 11.0557 -3.81295 -21.1377 11.9941 1.99448 
15.8026 87.0559 -220.952 -61.8658 -77.7367 -53.6447 -163.746 6.0855 91.7288 -84.1206 8.95243 1.14902 57.6587 -0.654465 4.02637 34.9666 5.46268 -10.1613 172.712 45.0229 103.642 -57.0485 -14.0494 2.38752 75.4366 -7.94355 -2.84535 14.3561 0.41592 1.90788 -0.704068 8.27827 -91.7107 10.2797 -2.18479 -3.21096 -1.39302 -2.32394 -3.11179 -23.9019 -1.11949 -3.71846 -3.88929 -1.11948 -3.71846 91.1523 -26.0738 -105.925 32.3203 4.14727 23.1448 -27.2887 -32.1722 -52.8325 -22.771 -0.199086 -17.1802 -89.345 -47.2271 79.0641 10.1612 23.1677 -40.2916 47.5639 -7.28005 -80.5445 6.07384 -0.0925696 -4.31067 34.8114 12.3922 2.60754 -17.4868 10.8547 -1.4165 
15.244 85.3347 -213.145 -67.8482 -78.0956 -57.1108 -163.171 19.4028 97.0004 -99.6406 3.98219 4.29082 61.8981 0.973803 7.15054 33.6368 6.63726 -11.4931 172.129 40.7051 105.838 -63.5634 -13.3187 2.47799 84.4251 -12.9997 -3.86897 15.5646 -0.34058 3.08428 -0.360113 8.40509 -91.9489 10.0222 -1.6041 -3.73597 -1.65289 -1.76687 -3.66191 -24.146 -0.408167 -4.04483 -4.13334 -0.408163 -4.04484 90.775 -28.4208 -105.803 31.8015 10.7296 10.8708 -27.07 -32.9245 -53.9494 -26.1222 -0.612165 -13.1983 -90.2488 -54.1152 79.2218 5.96312 25.565 -31.6707 48.2583 -5.40412 -79.4931 6.14878 -0.0294543 -3.55002 33.0277 12.3618 4.36438 -16.8388 10.2368 -2.24395 
14.7393 84.3126 -205.011 -74.8342 -78.4221 -63.2055 -166.647 32.9588 98.14 -107.578 0.298631 5.94472 67.8297 3.72001 3.92854 26.6033 8.74432 -11.8031 173.024 33.7604 105.333 -66.4608 -11.4829 2.16188 93.4074 -17.034 -1.81929 15.3405 0.175319 2.20714 -0.0702486 8.44879 -91.9123 9.94419 -1.00844 -3.71096 -1.73152 -1.17067 -3.6631 -24.2241 0.152568 -3.84234 -4.21145 0.152581 -3.84233 90.3668 -29.808 -106.103 34.8601 13.3676 -1.3675 -23.7538 -26.6564 -54.6743 -27.4511 0.153778 -14.7723 -89.7749 -56.4694 80.3502 -5.86185 24.3321 -13.4026 49.1618 -8.25683 -83.5554 6.51813 -0.233886 -6.26892 31.8555 11.2411 4.0918 -16.7529 9.23648 -1.47514 
14.502 83.4743 -196.465 -80.4077 -77.8647 -71.0026 -167.987 44.3809 95.8898 -107.519 0.663548 5.79941 72.9176 6.38726 8.91168 27.8956 8.61079 -12.1212 174.471 26.4364 101.037 -67.8443 -9.45561 0.986708 102.652 -19.9408 2.52644 15.9869 0.467457 1.59128 0.329928 8.44361 -91.5014 9.98147 -0.0250882 -2.98442 -1.69286 -0.15636 -2.98044 -24.2026 0.872673 -2.8542 -4.18992 0.872673 -2.85421 89.5774 -28.6683 -108.131 37.8424 12.9195 -11.5518 -16.5399 -17.3377 -55.5138 -35.4284 1.14162 -12.9767 -87.8905 -54.7066 82.6972 -15.9929 23.5548 2.93667 48.3838 -11.7348 -87.079 7.90692 -0.113221 -4.59794 29.4618 9.49071 4.40271 -14.9341 7.57024 -1.90682 
14.3591 83.7823 -187.186 -84.0658 -77.5036 -77.8993 -168.723 52.1922 93.033 -99.443 -4.2905 4.40868 75.6731 7.52124 7.09179 29.9189 8.14235 -12.2534 174.311 17.1651 95.3906 -65.1376 -12.9107 -0.190612 105.717 -21.8653 1.52817 18.1042 0.24496 1.60934 0.930375 8.31502 -90.9269 10.2528 1.43035 -1.96074 -1.41887 1.34268 -2.02178 -23.9532 1.95342 -1.44029 -3.9406 1.95343 -1.4403 89.5957 -26.7023 -108.925 39.1329 10.9815 -17.0677 -13.2236 -14.8489 -62.5764 -32.8419 2.27638 -16.8185 -86.9403 -53.1833 83.8194 -20.3733 25.5531 16.7687 48.5069 -16.0836 -90.0225 6.19534 -0.1432 -5.08805 26.6866 6.03432 3.07209 -14.3086 4.86719 -1.90907 
14.0341 85.4732 -176.88 -86.125 -77.5052 -81.8031 -169.32 55.4089 92.7395 -85.1437 -3.46825 1.8723 75.4767 7.69297 7.53333 27.7064 6.80852 -9.51413 172.975 7.57501 91.0398 -59.3099 -17.898 -1.09347 98.5036 -20.2767 -3.5933 27.19 -1.48804 3.74621 1.69551 8.12133 -90.467 10.6503 3.16174 -1.2159 -1.01751 3.10517 -1.35398 -23.5832 3.38084 -0.208447 -3.57058 3.38084 -0.208441 90.0122 -24.091 -109.215 39.4797 8.91539 -18.9537 -19.478 -16.2572 -73.6578 -31.7615 1.97495 -17.4956 -85.4417 -51.5527 85.784 -21.8061 30.0427 27.1709 49.1591 -20.2578 -91.3318 5.25616 -0.183614 -5.76596 23.4768 1.57283 0.414887 -13.7928 1.60882 -2.23902 
13.718 87.9742 -165.288 -98.6524 -78.6061 -96.8941 -170.509 50.3096 92.0448 -65.0042 -2.85482 -1.98021 71.9585 6.07003 5.23744 28.2834 7.30592 -10.4004 169.453 -3.5381 83.2439 -49.8001 -22.2341 -2.26672 84.7627 -13.3814 -4.91944 38.3456 -3.55748 7.90322 2.40033 8.24947 -90.0528 10.3931 4.75768 -0.521293 -1.26926 4.73012 -0.730656 -23.8734 4.69387 0.935974 -3.86074 4.69387 0.935969 91.7051 -20.4806 -107.082 38.9137 4.78565 -19.5249 -26.5142 -13.1271 -82.9989 -30.1155 1.4669 -17.33 -85.1934 -48.9671 85.8125 -24.4735 31.9233 35.4106 51.5897 -22.9036 -91.5458 4.97669 -0.209788 -6.22039 20.6599 -3.2433 -2.45166 -13.4094 -2.13015 -2.29281 
13.4143 90.1497 -153.053 -114.063 -81.3804 -114.259 -172.355 41.8244 90.3451 -40.0782 0.241449 -4.93844 63.5319 2.65344 4.42313 30.2836 4.43098 -6.94791 163.912 -16.9841 77.9059 -37.0742 -29.1858 -2.78474 70.1472 -5.31893 -2.204 36.8818 -2.45237 5.09584 2.76966 8.23483 -89.6536 10.4091 5.67614 0.189058 -1.24948 5.67894 -0.0617734 -23.876 5.35615 1.89115 -3.86333 5.35615 1.89115 92.6921 -17.3995 -106.143 37.6865 -0.851385 -17.9293 -26.8083 -7.92921 -88.9569 -29.302 1.5564 -17.3729 -84.9752 -42.1986 85.1574 -31.4365 30.0429 43.3695 53.5432 -24.6593 -91.9853 5.36717 -0.360176 -8.39713 16.2526 -7.47729 -7.55471 -13.0125 -4.99816 -1.71354 
13.241 91.0192 -141.221 -125.846 -82.1249 -126.646 -174.369 32.1543 88.9274 -15.4329 -3.441 -3.53235 55.5292 0.0283114 2.15772 30.3304 2.10258 -3.44672 163.647 -25.9083 76.0907 -32.9055 -28.4774 -6.03045 68.423 -4.22325 -1.4955 24.1225 -0.746194 2.55654 3.24589 8.00304 -89.5225 10.8725 6.68341 0.321288 -0.781238 6.69104 0.0254771 -23.4422 6.27664 2.32299 -3.42952 6.27663 2.32299 93.2852 -14.2561 -106.177 37.5471 -6.83831 -15.0579 -27.9515 -4.22483 -92.7379 -26.5528 1.67351 -19.0485 -84.6911 -37.8046 84.9669 -34.7635 27.5646 49.6563 54.2175 -27.3167 -93.7154 6.06586 -0.393205 -8.52625 8.22741 -9.58756 -9.76898 -10.0763 -7.15033 -3.27684 
13.2399 90.8451 -130.538 -124.702 -80.789 -123.12 -175.785 29.031 91.9022 -8.37786 -8.48951 -2.38929 54.8052 0.649388 0.665844 27.7981 0.945518 -1.18875 166.34 -29.7054 77.9865 -37.2706 -20.9001 -7.81736 74.7798 -7.68059 -2.66523 23.6253 -0.707083 2.58918 3.57254 7.61133 -89.7541 11.6806 7.22147 -0.264586 0.0297318 7.2028 -0.583849 -22.6596 6.96543 1.92886 -2.64693 6.96543 1.92886 93.6412 -12.3215 -106.217 38.412 -15.3279 -14.1169 -26.8358 -0.125637 -93.315 -24.1422 2.24657 -22.4039 -83.7314 -37.3627 86.5802 -33.767 22.1956 55.8498 53.9104 -30.8149 -97.6968 7.94425 -0.520429 -9.12946 1.31965 -9.39967 -10.5711 -7.76047 -7.53511 -3.609 
13.3957 90.3929 -120.324 -130.873 -79.8082 -125.033 -174.59 30.5744 95.6509 -16.8105 -0.56242 -2.9828 55.6067 -0.372022 2.53434 15.9915 4.16733 -2.8119 167.451 -29.484 80.1254 -46.0432 -10.4731 -6.447 76.5437 -8.67103 -2.94279 19.7977 -1.32523 4.37586 3.59196 7.28562 -90.2777 12.3651 7.00612 -1.35326 0.712055 6.93975 -1.66172 -21.9749 7.08728 0.825799 -1.96225 7.08728 0.825785 93.0211 -14.5107 -106.759 40.6944 -19.9843 -8.57068 -28.9484 0.638686 -92.6257 -20.8827 1.7162 -22.6334 -83.3309 -39.9207 87.6252 -27.5471 13.0282 58.361 52.9484 -30.8867 -102.335 7.85643 -0.632379 -10.4918 -1.56386 -8.71116 -10.5444 -7.76457 -7.23092 -1.97254 
